<?xml version="1.0" encoding="UTF-8"?>
<svg id="Laag_1" xmlns="http://www.w3.org/2000/svg" version="1.1" viewBox="0 0 610.33 324.27">
  <!-- Generator: Adobe Illustrator 29.8.2, SVG Export Plug-In . SVG Version: 2.1.1 Build 3)  -->
  <defs>
    <style>
      .st0 {
        fill: #1d1d1b;
      }
    </style>
  </defs>
  <path class="st0" d="M234.08,213.39c-2.27,0-4.22-.3-5.89-.89-1.67-.59-3.05-1.47-4.14-2.64-1.1-1.16-1.94-2.62-2.5-4.38-.56-1.75-.85-3.8-.85-6.13v-46.35h23.18v-17.33h-23.18v-31.84l-18.94,9.21v22.62h-14.3v17.33h14.3v48.06c0,5.08.58,9.53,1.74,13.33,1.17,3.8,2.89,6.97,5.19,9.51,2.29,2.54,5.18,4.45,8.67,5.7,3.48,1.26,7.52,1.88,12.1,1.88,3.02,0,5.78-.14,8.29-.42,2.51-.29,4.84-.71,6.97-1.28v-17.99c-1.88.5-3.72.89-5.51,1.18-1.79.28-3.5.42-5.13.42"/>
  <rect class="st0" x="260.56" y="135.67" width="18.93" height="94.3"/>
  <polygon class="st0" points="94.3 94.3 94.3 229.97 178.8 229.97 178.8 211.13 114.65 211.13 114.65 170.8 170.14 170.8 170.14 153.47 114.65 153.47 114.65 113.05 178.8 113.05 178.8 94.3 94.3 94.3"/>
  <path class="st0" d="M341.79,213.08c-16.71,0-30.32-13.6-30.32-30.31s13.6-30.31,30.32-30.31,30.31,13.6,30.31,30.31-13.6,30.31-30.31,30.31M341.79,134.07c-26.9,0-48.71,21.81-48.71,48.71s21.81,48.7,48.71,48.7,48.7-21.81,48.7-48.7-21.81-48.71-48.7-48.71"/>
  <path class="st0" d="M270.03,91.24c-6.87,0-12.44,5.57-12.44,12.43s5.56,12.44,12.44,12.44,12.43-5.57,12.43-12.44-5.56-12.43-12.43-12.43"/>
  <path class="st0" d="M448.93,133.32h0c-10.63,0-20.18,4.61-26.78,11.94l-4.67-9.59h-14.03v94.3h18.93v-56.39c0-12.07,9.79-21.86,21.86-21.86s21.86,9.79,21.86,21.86v56.39h18.84v-60.64c0-19.89-16.12-36.01-36.01-36.01"/>
  <path class="st0" d="M500.48,104.59c-8.57,0-15.54,6.97-15.54,15.54s6.97,15.54,15.54,15.54,15.54-6.97,15.54-15.54-6.97-15.54-15.54-15.54M500.48,132.87c-7.03,0-12.74-5.72-12.74-12.74s5.72-12.74,12.74-12.74,12.74,5.72,12.74,12.74-5.72,12.74-12.74,12.74"/>
  <path class="st0" d="M502.93,120.96c1.79-.73,2.84-2.25,2.84-4.19,0-2.7-2.04-4.66-4.85-4.66h-5.69v15.54h2.8v-6.15h2.03l3.46,6.15h3.2l-3.78-6.69ZM502.95,116.81c0,1.17-.93,2.05-2.17,2.05h-2.75v-4.09h2.75c1.26,0,2.17.86,2.17,2.05"/>
</svg>